<?xml version="1.0" standalone="no"?>
<!DOCTYPE svg PUBLIC "-//W3C//DTD SVG 20010904//EN"
 "http://www.w3.org/TR/2001/REC-SVG-20010904/DTD/svg10.dtd">
<svg version="1.0" xmlns="http://www.w3.org/2000/svg"
 width="700.000000pt" height="700.000000pt" viewBox="0 0 700.000000 700.000000"
 preserveAspectRatio="xMidYMid meet">
<metadata>
Created by potrace 1.14, written by Peter Selinger 2001-2017
</metadata>
<g transform="translate(0.000000,700.000000) scale(0.100000,-0.100000)"
fill="#000000" stroke="none">
<path d="M3157 6824 c-1 -1 -41 -4 -90 -8 -178 -12 -225 -22 -507 -108 -220
-66 -348 -122 -564 -247 -49 -28 -91 -51 -93 -51 -2 0 -22 -12 -46 -27 -114
-73 -145 -91 -177 -109 -19 -10 -39 -22 -45 -27 -5 -4 -39 -26 -74 -48 -95
-60 -447 -420 -591 -604 -30 -38 -57 -72 -60 -75 -17 -14 -135 -187 -185 -269
-93 -153 -217 -415 -268 -567 -45 -135 -130 -450 -140 -524 -3 -19 -10 -66
-16 -105 -68 -454 -55 -967 34 -1317 28 -112 129 -420 170 -517 95 -230 351
-649 495 -811 121 -136 139 -161 140 -182 0 -23 -12 -23 -60 2 -65 33 -67 23
-10 -40 62 -68 97 -121 110 -167 16 -52 91 -131 280 -292 41 -36 108 -98 147
-138 40 -40 81 -73 90 -74 48 -2 66 -8 123 -42 34 -20 65 -37 70 -37 25 0 -12
38 -99 100 -119 85 -143 107 -139 128 4 19 28 18 68 -2 113 -57 355 -186 396
-212 49 -31 95 -74 146 -137 15 -18 36 -30 63 -34 36 -6 39 -5 26 10 -7 10
-19 17 -25 17 -17 0 -73 49 -58 51 6 1 18 2 25 3 6 1 125 -32 262 -72 244 -72
290 -81 362 -67 40 7 39 24 -2 44 -27 13 -27 14 -10 27 10 8 25 14 33 14 8 0
26 7 40 15 15 8 39 19 55 25 15 5 27 16 27 24 0 22 40 46 78 46 18 0 51 -9 74
-21 68 -35 121 -50 150 -44 31 7 38 25 10 25 -10 0 -27 6 -37 14 -17 12 -18
17 -7 41 11 25 10 30 -8 50 -14 15 -18 25 -11 30 22 13 10 36 -26 51 -21 9
-53 23 -71 30 -28 12 -32 17 -22 29 19 22 -3 42 -65 60 -55 16 -82 40 -134
118 -18 26 -35 47 -39 47 -4 0 -22 9 -41 21 -31 19 -32 21 -17 38 16 17 14 18
-31 18 -63 0 -282 56 -335 85 -23 13 -42 30 -44 39 -7 53 83 162 142 174 29 5
34 10 34 35 0 58 15 78 64 85 93 14 85 43 -53 181 -56 56 -101 107 -101 113 0
6 11 16 25 21 29 11 29 9 11 46 -8 16 -16 62 -19 102 -3 42 -12 84 -21 98 -18
27 -166 152 -268 227 -38 27 -68 53 -68 57 0 13 -98 60 -114 54 -22 -8 -20
-17 9 -52 45 -54 27 -57 -51 -7 -73 47 -226 203 -299 306 -33 46 -90 125 -128
174 -37 50 -77 116 -89 148 -11 32 -40 89 -64 127 -54 88 -86 171 -113 290
-12 52 -24 106 -27 119 -9 43 -20 6 -22 -81 -2 -46 -7 -87 -12 -92 -17 -17
-39 3 -51 46 -16 55 -14 45 -22 108 -4 30 -10 71 -13 90 -6 45 -7 355 0 398 3
18 7 45 10 60 3 15 8 43 10 62 3 19 8 46 11 60 3 14 10 49 16 78 6 29 21 83
34 120 13 37 40 114 60 172 45 129 108 276 152 353 18 31 49 85 69 120 50 87
143 196 198 233 34 21 33 9 -4 -49 -29 -47 -38 -77 -22 -77 4 0 39 31 77 69
65 63 75 69 142 86 82 19 119 48 129 100 3 19 22 48 45 71 21 21 39 42 39 46
0 34 -147 -39 -251 -124 -73 -59 -89 -67 -89 -46 0 23 222 218 248 218 5 0 45
23 88 52 141 93 280 167 359 191 28 8 97 37 155 65 119 57 214 80 360 85 57 3
125 13 171 26 82 23 150 29 354 32 155 2 187 9 124 28 -145 44 -397 48 -629
10 -36 -6 -78 -13 -95 -16 -16 -2 -108 -24 -203 -49 -96 -25 -179 -43 -185
-41 -6 2 59 27 145 55 159 53 397 106 523 117 39 3 86 8 105 10 91 11 272 18
440 17 181 -1 203 -3 400 -46 36 -8 101 -17 144 -20 91 -7 234 -52 291 -91 21
-14 50 -28 64 -31 14 -4 66 -24 114 -46 57 -26 103 -40 128 -40 37 1 39 -1 33
-24 -6 -23 9 -34 21 -15 3 5 18 8 33 5 25 -4 24 -1 -18 34 -25 20 -67 58 -94
85 -28 26 -53 47 -58 47 -4 0 -52 29 -107 65 -112 74 -199 116 -414 200 -81
32 -145 60 -143 62 13 13 411 -99 446 -125 16 -13 51 -23 86 -27 33 -3 73 -11
89 -17 29 -11 134 -68 180 -98 12 -8 41 -26 64 -39 22 -14 41 -28 41 -33 0 -4
5 -8 11 -8 11 0 97 -64 184 -135 28 -23 77 -60 110 -82 33 -22 98 -75 145
-118 47 -42 101 -88 121 -101 20 -14 50 -50 69 -84 21 -38 43 -63 62 -71 21
-8 31 -22 39 -53 22 -80 33 -99 101 -172 128 -139 216 -313 186 -368 -18 -32
-18 -41 6 -81 12 -21 35 -43 54 -51 32 -13 32 -13 32 16 0 89 54 -41 86 -205
2 -11 19 -93 37 -183 36 -172 37 -212 7 -212 -20 0 -25 15 -36 110 -3 30 -11
64 -17 75 -10 19 -10 19 -17 1 -3 -10 -3 -46 2 -80 4 -34 10 -77 12 -96 3 -19
9 -56 15 -81 26 -115 34 -545 12 -677 -30 -189 -110 -465 -161 -557 -15 -27
-59 -120 -98 -206 -162 -358 -315 -593 -526 -809 -216 -221 -359 -311 -767
-481 -103 -42 -212 -93 -242 -112 -60 -39 -255 -103 -397 -132 -72 -15 -124
-32 -120 -41 7 -12 149 -9 234 5 63 11 141 21 206 26 14 1 31 -3 38 -8 7 -6
51 -7 112 -3 62 4 100 3 100 -3 0 -31 129 1 342 85 132 52 163 62 200 63 9 1
25 16 36 35 11 19 55 57 98 87 44 29 105 71 137 92 32 22 61 37 64 33 3 -3
-11 -24 -31 -47 -21 -22 -35 -43 -32 -46 10 -11 90 56 208 177 265 270 370
412 513 695 85 169 159 349 220 530 20 61 42 124 50 140 14 29 14 29 10 -24
-3 -30 -10 -73 -16 -95 -6 -23 -12 -48 -14 -56 -2 -8 -6 -27 -10 -43 -9 -35 8
-36 32 -1 10 14 28 38 40 53 13 16 29 61 38 106 9 43 25 99 34 124 10 25 22
66 26 91 4 25 13 67 21 94 16 58 18 76 5 76 -5 0 -20 -32 -33 -72 -13 -39 -29
-74 -37 -76 -10 -4 -12 0 -7 14 14 36 20 229 20 664 1 425 0 437 -20 480 -12
25 -34 71 -49 102 -41 89 -54 87 -62 -10 -2 -31 -8 -61 -13 -66 -13 -13 -40
101 -46 194 -4 66 -83 330 -123 409 -16 31 -34 74 -41 96 -12 37 -75 176 -126
278 -13 27 -24 54 -24 61 0 7 -15 33 -33 57 -62 81 -83 141 -54 152 8 4 5 11
-10 24 -12 10 -25 32 -29 48 -9 41 -39 98 -59 115 -9 7 -50 56 -92 109 -95
120 -200 229 -323 334 -148 127 -178 157 -157 157 34 0 15 21 -65 74 -46 29
-89 61 -97 70 -8 9 -44 33 -80 53 -36 19 -91 53 -122 74 -77 52 -313 171 -434
218 -83 33 -341 111 -411 125 -10 3 -40 9 -67 15 -26 6 -64 14 -85 17 -20 3
-40 8 -43 10 -16 9 -277 39 -444 50 -49 4 -108 8 -130 9 -22 2 -50 4 -63 4
-19 1 -22 5 -17 21 5 16 2 20 -17 21 -43 3 -139 5 -141 3z m358 -824 c12 -20
-5 -29 -36 -18 -23 8 -27 13 -17 19 18 12 45 11 53 -1z m-1177 -131 c-2 -6
-17 -18 -33 -27 -17 -9 -32 -20 -35 -23 -3 -4 -25 -16 -50 -29 -57 -28 -157
-100 -189 -134 -24 -26 -24 -26 -3 -26 12 0 22 -6 22 -12 0 -7 -91 -103 -203
-213 -262 -257 -318 -323 -449 -525 -51 -79 -69 -110 -151 -260 -37 -68 -57
-98 -57 -84 0 16 116 270 170 371 28 52 50 99 48 105 -2 5 -29 -26 -60 -69
-159 -218 -139 -133 27 117 115 173 240 308 495 534 64 57 169 130 229 160 36
19 100 55 141 80 73 45 105 57 98 35z m167 -168 c-11 -10 -60 -40 -110 -67
-49 -26 -115 -63 -145 -82 -77 -48 -297 -228 -339 -277 -62 -71 -162 -164
-218 -201 -30 -20 -66 -53 -80 -73 -90 -133 -207 -319 -223 -356 -10 -23 -30
-62 -45 -85 -21 -33 -25 -47 -17 -64 7 -16 0 -50 -29 -141 -21 -66 -46 -158
-55 -205 -8 -47 -23 -119 -31 -160 -9 -41 -18 -113 -21 -160 -2 -47 -9 -94
-15 -105 -10 -18 -12 -17 -17 15 -3 19 -2 55 1 80 4 25 10 70 13 100 4 30 9
69 12 85 9 52 12 125 4 125 -4 0 -10 -13 -13 -29 -4 -17 -16 -35 -28 -41 -20
-11 -21 -10 -14 32 14 88 55 246 85 333 105 297 341 685 418 685 15 0 24 10
33 37 12 37 182 223 223 245 16 9 18 7 13 -11 -8 -30 6 -33 34 -8 52 48 155
122 243 175 128 77 151 90 236 134 84 42 117 50 85 19z m-772 -82 c-27 -47
-92 -116 -93 -99 0 17 89 130 102 130 5 0 1 -14 -9 -31z m4217 -574 c7 -9 10
-18 7 -21 -10 -11 -37 5 -37 21 0 19 14 19 30 0z m-4818 -497 c-7 -7 -12 -8
-12 -2 0 14 12 26 19 19 2 -3 -1 -11 -7 -17z m5370 -563 c0 -5 -5 -11 -11 -13
-6 -2 -11 4 -11 13 0 9 5 15 11 13 6 -2 11 -8 11 -13z m-5376 -80 c-8 -23 -25
-9 -19 16 4 13 9 17 16 10 5 -5 7 -17 3 -26z m-11 -70 c-2 -45 -25 -73 -25
-31 0 24 15 66 24 66 2 0 2 -16 1 -35z m1547 -2933 c48 -14 57 -20 62 -43 3
-15 17 -39 31 -53 14 -14 23 -31 20 -37 -21 -33 -265 52 -265 93 0 5 6 24 14
43 14 33 16 34 48 23 18 -6 58 -17 90 -26z m138 -22 c0 -5 -4 -10 -10 -10 -5
0 -10 5 -10 10 0 6 5 10 10 10 6 0 10 -4 10 -10z m190 -325 c0 -18 -47 -38
-68 -30 -12 5 -12 9 3 25 22 24 65 27 65 5z m22 -131 c5 -3 8 -11 8 -19 0 -10
-8 -11 -34 -5 -41 9 -56 18 -56 32 0 10 63 3 82 -8z"/>
<path d="M1917 5563 c-20 -14 -37 -30 -37 -35 0 -19 29 -2 64 40 25 29 19 28
-27 -5z"/>
<path d="M1733 5417 c-42 -32 -59 -55 -48 -65 3 -4 29 17 58 46 58 58 53 68
-10 19z"/>
<path d="M1450 5085 c-7 -9 -11 -18 -8 -20 3 -3 11 1 18 10 7 9 11 18 8 20 -3
3 -11 -1 -18 -10z"/>
<path d="M5520 5951 c0 -11 58 -61 71 -61 16 0 9 20 -16 45 -24 25 -55 33 -55
16z"/>
<path d="M4800 5935 c7 -8 19 -15 27 -15 13 0 13 3 3 15 -7 8 -19 15 -27 15
-13 0 -13 -3 -3 -15z"/>
<path d="M5635 5840 c3 -5 8 -10 11 -10 2 0 4 5 4 10 0 6 -5 10 -11 10 -5 0
-7 -4 -4 -10z"/>
<path d="M4225 5810 c3 -5 11 -10 16 -10 6 0 7 5 4 10 -3 6 -11 10 -16 10 -6
0 -7 -4 -4 -10z"/>
<path d="M3194 5748 c-28 -4 -64 -13 -80 -20 l-29 -12 44 -4 c51 -4 339 33
351 45 7 7 -228 0 -286 -9z"/>
<path d="M3591 5741 c20 -13 168 -20 194 -10 25 10 30 9 -100 15 -74 3 -105 2
-94 -5z"/>
<path d="M2790 5618 l-25 -9 28 -24 28 -25 61 24 c34 12 63 27 65 32 4 13
-125 14 -157 2z"/>
<path d="M5180 5566 c0 -6 38 -45 69 -71 28 -23 20 -4 -13 33 -21 24 -56 47
-56 38z"/>
<path d="M3428 5460 c12 -5 32 -14 45 -19 14 -6 -17 -8 -88 -5 -60 2 -189 5
-285 5 -171 1 -177 0 -233 -26 -61 -29 -66 -45 -14 -45 46 -1 14 -17 -49 -25
-56 -7 -213 -52 -230 -66 -7 -6 -20 -11 -30 -14 -11 -2 -58 -22 -105 -44 -48
-23 -92 -41 -98 -41 -6 0 -11 -4 -11 -8 0 -15 -60 -43 -80 -37 -11 4 -20 2
-20 -2 0 -5 -15 -14 -33 -21 -43 -16 -184 -138 -272 -237 -39 -44 -76 -80 -82
-80 -22 0 -145 -188 -208 -317 -66 -135 -128 -368 -141 -529 -4 -46 -8 -97 -9
-114 -2 -16 -3 -46 -4 -65 -1 -27 -4 -31 -11 -20 -8 12 -10 8 -11 -15 -4 -109
10 -209 48 -340 39 -137 85 -234 198 -424 64 -108 98 -153 173 -228 112 -112
231 -213 327 -277 105 -71 311 -168 405 -191 8 -3 40 -11 70 -20 30 -8 69 -17
85 -20 17 -3 38 -8 47 -11 82 -25 408 -36 568 -20 102 11 292 61 385 101 177
77 303 152 439 261 50 41 94 74 99 74 10 0 9 -18 -5 -43 -11 -21 -10 -21 7 -7
11 8 27 23 37 32 10 10 38 27 62 39 32 14 77 57 155 145 61 68 111 131 111
140 0 9 9 33 21 53 l20 36 -33 -39 c-18 -21 -45 -52 -59 -69 -36 -43 -44 -20
-13 39 14 27 42 79 61 116 20 36 55 87 79 112 24 25 44 51 44 58 0 7 -8 3 -18
-10 -10 -13 -20 -20 -23 -17 -3 3 11 65 32 138 21 72 39 144 39 159 0 29 -14
45 -25 28 -11 -18 -22 -11 -28 18 -3 15 -17 40 -31 55 -25 27 -26 29 -9 65 9
20 18 53 20 72 3 32 2 33 -9 12 -7 -15 -17 -20 -29 -17 -9 3 -20 1 -23 -4 -4
-6 -13 -8 -21 -4 -10 3 -20 -6 -30 -31 -9 -20 -20 -34 -25 -31 -6 3 -15 -7
-22 -22 -11 -28 -107 -128 -119 -125 -4 1 -9 -16 -12 -36 -15 -99 -42 -172
-63 -172 -28 0 -64 24 -76 51 -7 15 -26 33 -43 41 -16 7 -31 19 -31 26 -1 6
-2 17 -3 22 -3 23 -32 7 -86 -47 -36 -37 -59 -53 -62 -45 -6 16 -97 6 -133
-15 -14 -8 -47 -44 -75 -80 -27 -35 -60 -77 -72 -91 -13 -15 -23 -35 -23 -46
0 -17 1 -17 26 -2 l25 17 -15 -28 c-38 -72 -238 -239 -339 -282 -26 -11 -59
-29 -74 -40 -16 -11 -59 -28 -98 -37 -100 -24 -106 -28 -47 -32 88 -5 59 -34
-49 -47 -75 -9 -182 -10 -254 -1 -140 17 -346 90 -481 171 -95 57 -191 150
-113 109 44 -22 46 -11 6 26 -19 17 -38 45 -41 63 -8 42 -33 77 -53 77 -9 0
-27 10 -40 22 -13 12 -23 16 -23 9 0 -19 36 -85 66 -120 14 -18 24 -34 22 -37
-8 -7 -98 96 -112 126 -6 14 -18 33 -27 43 -18 20 -84 150 -128 252 -28 66
-34 93 -46 210 -3 28 -10 66 -15 85 -5 19 -10 79 -11 133 -2 104 -13 127 -25
50 -18 -111 -7 -254 31 -402 39 -154 26 -144 -20 15 -32 109 -45 210 -51 389
-5 134 -2 176 20 295 2 14 7 45 10 70 8 61 18 90 65 195 22 50 41 100 41 113
0 13 4 20 10 17 6 -3 10 4 10 17 -1 20 -5 18 -40 -22 -61 -69 -124 -177 -165
-281 -20 -52 -40 -98 -45 -102 -11 -12 49 205 62 220 5 7 12 28 13 47 5 43 29
89 97 187 85 122 163 220 220 277 80 81 90 88 131 106 21 8 61 36 88 60 55 49
146 90 166 74 8 -6 20 -5 35 3 33 17 40 32 22 46 -13 9 -10 13 18 21 46 15
107 30 147 37 19 3 37 7 40 9 18 11 101 15 101 6 0 -12 -12 -17 -58 -24 -19
-2 -37 -8 -40 -12 -8 -8 135 3 149 12 17 10 285 12 335 3 27 -5 58 -11 69 -13
142 -26 462 -178 611 -289 159 -119 251 -234 324 -406 23 -53 59 -132 80 -176
39 -82 59 -140 80 -233 7 -28 17 -55 22 -58 11 -7 7 41 -11 171 -5 33 -7 63
-4 68 2 4 6 37 7 75 2 56 -4 87 -38 191 -30 89 -50 132 -72 157 -18 18 -46 56
-64 85 l-32 53 28 -18 27 -19 -21 31 c-31 43 -187 187 -258 238 -113 81 -288
164 -454 216 -67 22 -70 37 -3 19 21 -6 47 -11 58 -11 18 0 18 2 -5 20 -14 11
-43 25 -65 31 -22 6 -60 17 -85 25 -62 18 -133 28 -102 14z m-1546 -1632 c-7
-7 -12 -8 -12 -2 0 14 12 26 19 19 2 -3 -1 -11 -7 -17z m2839 -265 c-10 -17
-10 -16 -11 3 0 23 13 41 18 25 2 -6 -1 -18 -7 -28z m-53 -2 c3 -8 -1 -12 -9
-9 -7 2 -15 10 -17 17 -3 8 1 12 9 9 7 -2 15 -10 17 -17z m-130 -128 c-22 -81
-59 -119 -75 -77 -9 24 17 89 40 101 41 20 46 16 35 -24z m-2459 -185 c7 -15
37 -58 66 -95 46 -60 92 -111 233 -258 49 -51 245 -166 270 -157 6 2 40 -5 74
-16 74 -24 151 -41 228 -49 30 -3 64 -10 75 -14 13 -6 0 -7 -35 -4 -155 15
-166 15 -140 4 44 -20 2 -22 -73 -4 -169 40 -447 190 -447 241 0 8 -6 14 -13
14 -20 0 -130 108 -122 119 3 6 -12 34 -33 63 -48 64 -128 203 -137 238 -6 24
19 -14 54 -82z m-99 -50 c41 -73 80 -117 87 -99 3 8 43 -26 117 -101 126 -129
191 -181 326 -261 52 -31 90 -57 84 -57 -6 0 -55 22 -109 50 -55 27 -101 48
-103 46 -1 -2 20 -20 48 -41 27 -20 50 -39 50 -42 0 -8 -111 57 -165 97 -80
60 -197 178 -271 275 -27 36 -104 169 -104 180 0 15 13 -1 40 -47z m130 -282
c22 -27 -5 -17 -31 10 -21 24 -22 26 -3 16 11 -6 26 -18 34 -26z m890 -290 c0
-11 -19 -15 -25 -6 -3 5 1 10 9 10 9 0 16 -2 16 -4z"/>
<path d="M2090 3046 c0 -2 7 -9 15 -16 13 -11 14 -10 9 4 -5 14 -24 23 -24 12z"/>
<path d="M2168 2954 c6 -11 19 -27 28 -35 16 -13 16 -12 6 7 -6 11 -19 27 -28
35 -16 13 -16 12 -6 -7z"/>
<path d="M2750 5420 c0 -5 4 -10 9 -10 6 0 13 5 16 10 3 6 -1 10 -9 10 -9 0
-16 -4 -16 -10z"/>
<path d="M2665 5400 c-16 -7 -17 -9 -3 -9 9 -1 20 4 23 9 7 11 7 11 -20 0z"/>
<path d="M2733 5389 c-18 -5 -33 -12 -33 -15 0 -8 63 6 75 17 11 11 1 10 -42
-2z"/>
<path d="M3756 5383 c-11 -11 -6 -23 8 -23 8 0 17 4 20 9 7 10 -19 23 -28 14z"/>
<path d="M2715 5355 c-23 -10 -25 -14 -10 -14 21 -1 52 15 45 23 -3 2 -18 -2
-35 -9z"/>
<path d="M2585 5340 c-3 -6 1 -7 9 -4 18 7 21 14 7 14 -6 0 -13 -4 -16 -10z"/>
<path d="M2368 5263 c-88 -46 -146 -88 -136 -98 9 -9 85 13 101 29 7 7 54 33
105 56 51 24 90 45 87 49 -19 18 -80 4 -157 -36z"/>
<path d="M6086 5285 c10 -92 42 -170 85 -203 13 -11 30 -37 37 -58 30 -87 127
-288 148 -305 13 -10 14 -4 14 42 -1 30 1 64 4 77 7 33 -139 316 -211 407 -55
71 -82 85 -77 40z"/>
<path d="M2792 5269 c2 -7 10 -15 17 -17 8 -3 12 1 9 9 -2 7 -10 15 -17 17 -8
3 -12 -1 -9 -9z"/>
<path d="M2685 5220 c-3 -6 1 -7 9 -4 18 7 21 14 7 14 -6 0 -13 -4 -16 -10z"/>
<path d="M3215 5080 c3 -5 13 -10 21 -10 8 0 14 5 14 10 0 6 -9 10 -21 10 -11
0 -17 -4 -14 -10z"/>
<path d="M3335 5081 c3 -6 16 -11 28 -11 12 -1 36 -12 52 -25 l30 -25 -81 2
c-95 1 -147 -17 -74 -26 25 -3 67 -4 93 -3 26 1 51 -3 55 -8 13 -18 55 -34
177 -66 118 -31 165 -49 195 -74 8 -7 38 -20 65 -30 28 -9 64 -27 82 -41 41
-31 48 -30 26 2 -17 27 -17 27 4 15 36 -19 38 -13 7 20 -61 65 -253 176 -369
212 -136 43 -302 76 -290 58z m460 -169 c-17 -4 -45 15 -45 30 0 5 14 1 31 -9
22 -13 26 -19 14 -21z m91 -53 c4 -8 1 -8 -14 0 -12 6 -24 16 -28 22 -4 8 -1
8 14 0 12 -6 24 -16 28 -22z"/>
<path d="M2635 5030 c-3 -5 -1 -10 4 -10 6 0 11 5 11 10 0 6 -2 10 -4 10 -3 0
-8 -4 -11 -10z"/>
<path d="M2682 5015 c-6 -8 -19 -12 -27 -9 -8 4 -15 2 -15 -3 0 -10 61 -72 73
-73 4 0 14 0 22 0 21 0 19 -23 -5 -40 -15 -11 -17 -17 -8 -28 7 -8 13 -24 15
-35 3 -23 52 -69 64 -61 12 7 90 -96 96 -128 4 -21 8 -26 14 -16 6 9 9 1 10
-22 1 -19 3 -42 3 -50 2 -19 -37 -122 -58 -152 -9 -12 -16 -19 -16 -15 0 5
-13 -1 -29 -13 -20 -14 -28 -27 -26 -41 2 -11 0 -17 -5 -14 -9 6 -81 -24 -91
-39 -4 -4 -9 -4 -13 2 -8 13 -29 10 -52 -8 -16 -13 -17 -13 -9 0 4 8 5 12 0 8
-4 -4 -15 -2 -24 4 -13 10 -14 10 -3 -2 6 -8 12 -17 12 -20 0 -12 -135 5 -155
20 -5 4 -19 10 -30 13 -14 5 -12 0 10 -19 29 -25 29 -25 5 -18 -57 16 -180
139 -180 180 0 6 -7 17 -15 24 -9 7 -14 19 -11 25 2 7 -1 18 -7 24 -6 6 -7 11
-1 11 5 0 9 35 10 78 1 89 29 162 76 200 15 13 26 28 22 33 -11 18 72 71 176
113 8 3 -10 4 -40 2 -110 -7 -176 -56 -231 -171 -16 -33 -29 -55 -30 -50 0 6
-6 -6 -13 -25 -8 -19 -11 -39 -9 -43 3 -5 6 -40 7 -78 1 -49 5 -72 16 -79 8
-5 11 -12 8 -16 -4 -4 -1 -16 7 -27 8 -11 12 -31 9 -43 -4 -17 9 -39 58 -96
103 -118 180 -158 331 -173 199 -20 399 160 425 383 11 98 0 169 -39 250 -18
37 -35 71 -37 76 -3 5 1 5 9 0 12 -7 12 -5 0 9 -7 9 -17 14 -22 11 -5 -2 -15
10 -22 28 -8 18 -28 45 -46 61 -31 28 -47 35 -36 17 4 -6 -10 -3 -29 7 -20 9
-36 20 -36 23 0 4 -6 7 -12 7 -7 0 -29 3 -48 7 -25 4 -39 2 -48 -9z m58 -65
c13 -8 13 -10 -2 -10 -9 0 -20 5 -23 10 -8 13 5 13 25 0z m-410 -124 c0 -2 -8
-10 -17 -17 -16 -13 -17 -12 -4 4 13 16 21 21 21 13z m595 -360 c-8 -18 -11
-36 -8 -40 4 -3 1 -6 -5 -6 -6 0 -9 -6 -6 -14 7 -18 -36 -77 -49 -69 -6 3 -7
2 -4 -4 3 -5 -7 -20 -24 -32 -28 -21 -30 -21 -20 -3 6 11 7 23 3 27 -4 5 -1 5
6 1 7 -4 12 -1 12 8 0 10 -6 13 -17 10 -15 -5 -15 -4 -3 4 8 6 17 9 21 6 14
-8 70 71 81 113 5 24 14 40 19 38 4 -3 1 -21 -6 -39z m-671 -72 c3 -8 2 -12
-4 -9 -6 3 -10 10 -10 16 0 14 7 11 14 -7z"/>
<path d="M2855 4360 c-3 -5 -1 -10 4 -10 6 0 11 5 11 10 0 6 -2 10 -4 10 -3 0
-8 -4 -11 -10z"/>
<path d="M3890 5026 c0 -2 45 -38 100 -80 55 -41 100 -72 100 -69 0 18 -58 77
-104 107 -51 32 -96 52 -96 42z"/>
<path d="M3110 5000 c0 -5 5 -10 11 -10 5 0 7 5 4 10 -3 6 -8 10 -11 10 -2 0
-4 -4 -4 -10z"/>
<path d="M1913 4903 c-7 -3 -13 -12 -13 -21 0 -15 2 -15 17 1 18 18 16 27 -4
20z"/>
<path d="M3990 4907 c0 -2 15 -16 33 -33 l32 -29 -29 33 c-28 30 -36 37 -36
29z"/>
<path d="M5180 4861 c0 -4 10 -21 22 -37 12 -15 42 -57 65 -92 32 -49 44 -61
49 -49 8 21 -26 87 -73 145 -31 38 -63 55 -63 33z"/>
<path d="M2327 4763 c-32 -64 -39 -97 -27 -125 10 -23 11 -23 6 0 -2 12 0 22
4 22 5 0 12 15 15 33 4 17 16 50 26 71 22 46 22 46 9 46 -5 0 -20 -21 -33 -47z"/>
<path d="M3785 4794 c24 -19 75 -46 75 -41 0 6 -79 57 -87 57 -5 0 1 -8 12
-16z"/>
<path d="M2515 4760 c-20 -8 -74 -60 -62 -60 8 0 97 60 97 66 0 6 -12 4 -35
-6z"/>
<path d="M2110 4725 c-7 -8 -9 -15 -6 -15 4 0 14 7 22 15 9 8 11 15 6 15 -5 0
-15 -7 -22 -15z"/>
<path d="M6430 4608 c0 -23 11 -48 21 -48 14 0 11 24 -6 46 -12 16 -14 17 -15
2z"/>
<path d="M6540 4449 c0 -14 7 -34 15 -45 14 -18 14 -18 15 7 0 14 -7 34 -15
45 -14 18 -14 18 -15 -7z"/>
<path d="M6194 4405 c10 -41 26 -56 26 -23 0 14 -7 32 -17 39 -15 13 -16 11
-9 -16z"/>
<path d="M6241 4408 c-1 -15 4 -30 9 -33 12 -7 12 12 0 40 -8 18 -9 17 -9 -7z"/>
<path d="M6440 4388 c0 -37 19 -95 36 -108 13 -11 14 -9 10 21 -11 82 -46 148
-46 87z"/>
<path d="M6505 4350 c4 -19 15 -60 25 -90 17 -52 18 -53 19 -20 1 34 -26 121
-43 137 -5 4 -5 -8 -1 -27z"/>
<path d="M6580 4261 c0 -24 13 -33 34 -25 12 5 13 10 5 25 -13 25 -39 24 -39
0z"/>
<path d="M6271 4192 c-14 -26 3 -50 26 -36 25 16 27 31 4 43 -16 9 -22 8 -30
-7z"/>
<path d="M2009 3978 c-1 -7 -3 -30 -4 -51 -2 -22 -1 -36 2 -33 7 7 14 96 8 96
-3 0 -5 -6 -6 -12z"/>
<path d="M1336 3855 c-8 -23 -8 -35 3 -35 13 0 20 25 11 39 -5 10 -9 8 -14 -4z"/>
<path d="M1999 3804 c-1 -14 2 -86 6 -118 5 -39 24 -57 20 -19 -9 95 -23 168
-26 137z"/>
<path d="M4766 3764 c-7 -19 2 -37 15 -29 12 8 12 45 0 45 -5 0 -12 -7 -15
-16z"/>
<path d="M4812 3751 c-12 -7 -13 -61 -2 -61 12 0 30 25 30 41 0 22 -12 30 -28
20z"/>
<path d="M6731 3714 c0 -11 3 -14 6 -6 3 7 2 16 -1 19 -3 4 -6 -2 -5 -13z"/>
<path d="M5760 3567 c0 -23 4 -36 10 -32 13 8 13 35 0 55 -7 11 -10 5 -10 -23z"/>
<path d="M2070 3553 c-2 -14 -3 -44 -1 -70 1 -16 2 -16 17 -2 14 14 14 20 0
50 -8 19 -15 28 -16 22z"/>
<path d="M1320 3518 c0 -15 5 -30 10 -33 13 -8 13 25 0 45 -8 12 -10 9 -10
-12z"/>
<path d="M4412 3500 c0 -14 2 -19 5 -12 2 6 2 18 0 25 -3 6 -5 1 -5 -13z"/>
<path d="M5927 3373 c-10 -18 -17 -65 -11 -74 8 -14 33 21 34 48 0 22 -15 40
-23 26z"/>
<path d="M5771 3273 c-18 -65 -26 -189 -12 -197 14 -9 14 -69 0 -118 -10 -38
-24 -49 -32 -25 -7 23 -89 -235 -113 -357 -2 -12 -8 -32 -13 -46 -5 -14 -14
-49 -20 -77 -16 -78 -55 -168 -112 -254 -27 -42 -52 -88 -55 -103 -11 -60 -47
-135 -98 -203 -34 -45 -49 -73 -41 -73 8 0 15 3 15 8 0 8 62 52 73 52 4 0 0
-18 -9 -40 -9 -23 -14 -43 -12 -46 3 -3 31 19 63 48 105 95 318 451 386 643
23 67 67 210 74 240 2 11 15 63 28 115 27 107 34 141 43 220 3 30 8 58 10 62
3 4 0 9 -5 13 -13 8 -30 -25 -36 -71 -2 -21 -15 -49 -29 -63 -13 -14 -27 -36
-31 -48 -13 -44 -33 -21 -36 42 -1 17 1 63 5 103 7 68 -2 138 -24 197 -6 17
-9 13 -19 -22z m-108 -971 c-12 -34 -67 -106 -71 -94 -7 22 7 59 34 91 27 32
48 34 37 3z m-117 -189 c-22 -42 -59 -79 -64 -64 -3 10 63 91 75 91 2 0 -3
-12 -11 -27z"/>
<path d="M3135 2740 c-3 -5 -1 -10 4 -10 6 0 11 5 11 10 0 6 -2 10 -4 10 -3 0
-8 -4 -11 -10z"/>
<path d="M4229 2532 c-24 -21 -77 -62 -116 -91 -40 -29 -73 -57 -73 -62 0 -18
90 43 198 136 22 19 48 55 39 55 -2 0 -24 -17 -48 -38z"/>
<path d="M6490 2305 c-19 -50 -5 -79 24 -49 20 19 20 48 1 64 -12 10 -16 8
-25 -15z"/>
<path d="M5365 2244 c-56 -77 -89 -134 -77 -134 20 0 132 174 120 185 -2 2
-21 -21 -43 -51z"/>
<path d="M5784 2006 c-16 -19 -61 -81 -101 -138 -40 -56 -93 -125 -118 -152
-25 -28 -42 -53 -37 -58 8 -8 105 51 135 83 43 46 167 261 167 290 0 18 -19 8
-46 -25z"/>
<path d="M5551 1818 c-73 -85 -91 -126 -21 -47 45 50 104 129 96 129 -2 0 -36
-37 -75 -82z"/>
<path d="M616 1738 c9 -32 100 -170 163 -248 59 -74 200 -220 213 -220 18 0 5
20 -60 96 -37 43 -90 111 -117 149 -27 39 -53 75 -57 80 -128 163 -158 193
-142 143z"/>
<path d="M2790 1022 c0 -12 24 -22 52 -22 11 0 18 5 16 13 -5 14 -68 23 -68 9z"/>
<path d="M3276 322 c-8 -14 30 -40 71 -48 37 -7 49 7 24 30 -23 21 -86 32 -95
18z"/>
<path d="M3213 249 c-30 -11 -29 -23 3 -44 46 -30 81 -35 98 -16 19 21 20 35
4 49 -19 15 -80 22 -105 11z"/>
</g>
</svg>
